<mxfile host="www.draw.io" modified="2020-03-12T08:34:51.546Z" agent="Mozilla/5.0 (Macintosh; Intel Mac OS X 10_14_6) AppleWebKit/537.36 (KHTML, like Gecko) Chrome/80.0.3987.87 Safari/537.36 Edg/80.0.361.48" etag="MdRm4FGvsdijwG8aezj6" version="12.8.4" type="github" pages="3">
  <diagram id="U2Q95i_eIYNvRnpjLNzL" name="Mutaties">
    <mxGraphModel dx="946" dy="642" grid="1" gridSize="10" guides="1" tooltips="1" connect="1" arrows="1" fold="1" page="1" pageScale="1" pageWidth="1169" pageHeight="1654" math="0" shadow="0">
      <root>
        <mxCell id="sBV037C6b4hhOkvPHdRb-0" />
        <mxCell id="sBV037C6b4hhOkvPHdRb-1" parent="sBV037C6b4hhOkvPHdRb-0" />
      </root>
    </mxGraphModel>
  </diagram>
  <diagram id="2GDcOKiqlrz1-pF2stGL" name="Omzetten">
    <mxGraphModel dx="1892" dy="1284" grid="0" gridSize="10" guides="1" tooltips="1" connect="1" arrows="1" fold="1" page="1" pageScale="1" pageWidth="1169" pageHeight="1654" math="0" shadow="0">
      <root>
        <mxCell id="arAL8bdrMYMsqUM0ZBSV-0" />
        <mxCell id="arAL8bdrMYMsqUM0ZBSV-1" parent="arAL8bdrMYMsqUM0ZBSV-0" />
        <mxCell id="arAL8bdrMYMsqUM0ZBSV-2" value="Bestaand Leningdeel" style="swimlane;childLayout=stackLayout;horizontal=1;startSize=30;horizontalStack=0;fillColor=#f5f5f5;rounded=1;fontSize=14;fontStyle=1;strokeWidth=2;resizeParent=0;resizeLast=1;shadow=0;dashed=0;align=center;swimlaneLine=1;strokeColor=#666666;fontColor=#333333;" vertex="1" parent="arAL8bdrMYMsqUM0ZBSV-1">
          <mxGeometry x="415" y="245.5" width="257" height="195" as="geometry" />
        </mxCell>
        <mxCell id="arAL8bdrMYMsqUM0ZBSV-3" value="BestaandLeningDeelNr&#xa;&lt;AflosvormType&gt;&#xa;ProResto Bedrag&#xa;Box 3 bedrag&#xa;Opgebouwde waarde bedrag Dekking(-en)&#xa;Resterende looptijd leningdeel in mndn&#xa;Resterende looptijd rentevast in mndn&#xa;Rentepercentage&#xa;NHG garantie? JN?&#xa;&lt;LeningDeelMutatieType&gt; Te Wijzigen&#xa;+LeningDeelMutatie(s)" style="align=left;strokeColor=none;fillColor=none;spacingLeft=4;fontSize=12;verticalAlign=top;resizable=0;rotatable=0;part=1;" vertex="1" parent="arAL8bdrMYMsqUM0ZBSV-2">
          <mxGeometry y="30" width="257" height="165" as="geometry" />
        </mxCell>
        <mxCell id="arAL8bdrMYMsqUM0ZBSV-4" value="Bestaande Lening (Te Wijzigen)" style="swimlane;childLayout=stackLayout;horizontal=1;startSize=30;horizontalStack=0;fillColor=#f5f5f5;rounded=1;fontSize=14;fontStyle=1;strokeWidth=2;resizeParent=0;resizeLast=1;shadow=0;dashed=0;align=center;swimlaneLine=1;strokeColor=#666666;fontColor=#333333;" vertex="1" parent="arAL8bdrMYMsqUM0ZBSV-1">
          <mxGeometry x="160" y="120" width="257" height="112" as="geometry" />
        </mxCell>
        <mxCell id="arAL8bdrMYMsqUM0ZBSV-5" value="BestaandLeningNr=BestaandHypotheekNr&#xa;&#xa;&#xa;&lt;LeningDeelMutatieType&gt; Te Wijzigen&#xa;+Leningdelen" style="align=left;strokeColor=none;fillColor=none;spacingLeft=4;fontSize=12;verticalAlign=top;resizable=0;rotatable=0;part=1;" vertex="1" parent="arAL8bdrMYMsqUM0ZBSV-4">
          <mxGeometry y="30" width="257" height="82" as="geometry" />
        </mxCell>
        <mxCell id="arAL8bdrMYMsqUM0ZBSV-6" value="LeningDeel mutatie: Wijzig: Omzetten" style="swimlane;childLayout=stackLayout;horizontal=1;startSize=30;horizontalStack=0;fillColor=#f5f5f5;rounded=1;fontSize=14;fontStyle=1;strokeWidth=2;resizeParent=0;resizeLast=1;shadow=0;dashed=0;align=center;swimlaneLine=1;strokeColor=#666666;fontColor=#333333;" vertex="1" parent="arAL8bdrMYMsqUM0ZBSV-1">
          <mxGeometry x="686" y="428.5" width="257" height="170" as="geometry" />
        </mxCell>
        <mxCell id="arAL8bdrMYMsqUM0ZBSV-7" value="&lt;AflosvormType&gt;&#xa;Bedrag&#xa;Box 3 bedrag&#xa;Looptijd leningdeel in mndn&#xa;Looptijd rentevast in mndn&#xa;Rentepercentage&#xa;Einddatum&#xa;NHG garantie? JN?&#xa;&lt;MutatieRedenType&gt; Omzetten" style="align=left;strokeColor=none;fillColor=none;spacingLeft=4;fontSize=12;verticalAlign=top;resizable=0;rotatable=0;part=1;" vertex="1" parent="arAL8bdrMYMsqUM0ZBSV-6">
          <mxGeometry y="30" width="257" height="140" as="geometry" />
        </mxCell>
        <mxCell id="arAL8bdrMYMsqUM0ZBSV-8" value="LeningDeel mutatie: Nieuw: Splitsen" style="swimlane;childLayout=stackLayout;horizontal=1;startSize=30;horizontalStack=0;fillColor=#f5f5f5;rounded=1;fontSize=14;fontStyle=1;strokeWidth=2;resizeParent=0;resizeLast=1;shadow=0;dashed=0;align=center;swimlaneLine=1;strokeColor=#666666;fontColor=#333333;" vertex="1" parent="arAL8bdrMYMsqUM0ZBSV-1">
          <mxGeometry x="415" y="767.5" width="257" height="197" as="geometry" />
        </mxCell>
        <mxCell id="arAL8bdrMYMsqUM0ZBSV-9" value="FictiefNieuwLeningDeelNr&#xa;RefBestaandLeningDeelNr&#xa;&lt;AflosvormType&gt;&#xa;Bedrag&#xa;Box 3 bedrag&#xa;Looptijd leningdeel in mndn&#xa;Looptijd rentevast in mndn&#xa;Rentepercentage&#xa;Einddatum&#xa;NHG garantie? JN?&#xa;&lt;MutatieRedenType&gt; Splitsen" style="align=left;strokeColor=none;fillColor=none;spacingLeft=4;fontSize=12;verticalAlign=top;resizable=0;rotatable=0;part=1;" vertex="1" parent="arAL8bdrMYMsqUM0ZBSV-8">
          <mxGeometry y="30" width="257" height="167" as="geometry" />
        </mxCell>
        <mxCell id="arAL8bdrMYMsqUM0ZBSV-10" style="edgeStyle=orthogonalEdgeStyle;rounded=0;orthogonalLoop=1;jettySize=auto;html=1;exitX=0.5;exitY=1;exitDx=0;exitDy=0;entryX=0;entryY=0.5;entryDx=0;entryDy=0;" edge="1" parent="arAL8bdrMYMsqUM0ZBSV-1" source="arAL8bdrMYMsqUM0ZBSV-5" target="arAL8bdrMYMsqUM0ZBSV-3">
          <mxGeometry relative="1" as="geometry" />
        </mxCell>
        <mxCell id="arAL8bdrMYMsqUM0ZBSV-11" style="edgeStyle=orthogonalEdgeStyle;rounded=0;orthogonalLoop=1;jettySize=auto;html=1;exitX=0.5;exitY=1;exitDx=0;exitDy=0;entryX=0;entryY=0.5;entryDx=0;entryDy=0;" edge="1" parent="arAL8bdrMYMsqUM0ZBSV-1" source="arAL8bdrMYMsqUM0ZBSV-3" target="arAL8bdrMYMsqUM0ZBSV-7">
          <mxGeometry relative="1" as="geometry" />
        </mxCell>
        <mxCell id="arAL8bdrMYMsqUM0ZBSV-12" style="edgeStyle=orthogonalEdgeStyle;rounded=0;orthogonalLoop=1;jettySize=auto;html=1;exitX=0.5;exitY=1;exitDx=0;exitDy=0;entryX=0;entryY=0.5;entryDx=0;entryDy=0;" edge="1" parent="arAL8bdrMYMsqUM0ZBSV-1" source="arAL8bdrMYMsqUM0ZBSV-5" target="arAL8bdrMYMsqUM0ZBSV-9">
          <mxGeometry relative="1" as="geometry" />
        </mxCell>
        <mxCell id="arAL8bdrMYMsqUM0ZBSV-13" style="edgeStyle=orthogonalEdgeStyle;rounded=0;orthogonalLoop=1;jettySize=auto;html=1;exitX=0.25;exitY=1;exitDx=0;exitDy=0;entryX=0.25;entryY=0;entryDx=0;entryDy=0;dashed=1;" edge="1" parent="arAL8bdrMYMsqUM0ZBSV-1" source="arAL8bdrMYMsqUM0ZBSV-3" target="arAL8bdrMYMsqUM0ZBSV-8">
          <mxGeometry relative="1" as="geometry" />
        </mxCell>
        <mxCell id="arAL8bdrMYMsqUM0ZBSV-14" value="LeningDeel mutatie: Wijzig: Splitsen" style="swimlane;childLayout=stackLayout;horizontal=1;startSize=30;horizontalStack=0;fillColor=#f5f5f5;rounded=1;fontSize=14;fontStyle=1;strokeWidth=2;resizeParent=0;resizeLast=1;shadow=0;dashed=0;align=center;swimlaneLine=1;strokeColor=#666666;fontColor=#333333;" vertex="1" parent="arAL8bdrMYMsqUM0ZBSV-1">
          <mxGeometry x="689" y="607.5" width="257" height="170" as="geometry" />
        </mxCell>
        <mxCell id="arAL8bdrMYMsqUM0ZBSV-15" value="&lt;AflosvormType&gt;&#xa;Bedrag&#xa;Box 3 bedrag&#xa;Looptijd leningdeel in mndn&#xa;Looptijd rentevast in mndn&#xa;Rentepercentage&#xa;Einddatum&#xa;NHG garantie? JN?&#xa;&lt;MutatieRedenType&gt; Omzetten/Splitsen" style="align=left;strokeColor=none;fillColor=none;spacingLeft=4;fontSize=12;verticalAlign=top;resizable=0;rotatable=0;part=1;" vertex="1" parent="arAL8bdrMYMsqUM0ZBSV-14">
          <mxGeometry y="30" width="257" height="140" as="geometry" />
        </mxCell>
        <mxCell id="arAL8bdrMYMsqUM0ZBSV-16" style="edgeStyle=orthogonalEdgeStyle;rounded=0;orthogonalLoop=1;jettySize=auto;html=1;exitX=0.5;exitY=1;exitDx=0;exitDy=0;entryX=0;entryY=0.5;entryDx=0;entryDy=0;" edge="1" parent="arAL8bdrMYMsqUM0ZBSV-1" source="arAL8bdrMYMsqUM0ZBSV-3" target="arAL8bdrMYMsqUM0ZBSV-15">
          <mxGeometry relative="1" as="geometry" />
        </mxCell>
        <mxCell id="arAL8bdrMYMsqUM0ZBSV-17" value="Nieuw door Splitsen" style="text;html=1;strokeColor=none;fillColor=none;align=center;verticalAlign=middle;whiteSpace=wrap;rounded=0;" vertex="1" parent="arAL8bdrMYMsqUM0ZBSV-1">
          <mxGeometry x="329" y="734.5" width="141" height="20" as="geometry" />
        </mxCell>
        <mxCell id="arAL8bdrMYMsqUM0ZBSV-18" value="Splitsen" style="text;html=1;strokeColor=none;fillColor=none;align=center;verticalAlign=middle;whiteSpace=wrap;rounded=0;" vertex="1" parent="arAL8bdrMYMsqUM0ZBSV-1">
          <mxGeometry x="545" y="682.5" width="141" height="20" as="geometry" />
        </mxCell>
        <mxCell id="arAL8bdrMYMsqUM0ZBSV-19" value="Omzetten" style="text;html=1;strokeColor=none;fillColor=none;align=center;verticalAlign=middle;whiteSpace=wrap;rounded=0;" vertex="1" parent="arAL8bdrMYMsqUM0ZBSV-1">
          <mxGeometry x="545" y="500.5" width="141" height="20" as="geometry" />
        </mxCell>
      </root>
    </mxGraphModel>
  </diagram>
  <diagram id="4AwnqXCFqHiwpoKAggdT" name="Verhogen">
    <mxGraphModel dx="946" dy="642" grid="1" gridSize="10" guides="1" tooltips="1" connect="1" arrows="1" fold="1" page="1" pageScale="1" pageWidth="1169" pageHeight="1654" math="0" shadow="0">
      <root>
        <mxCell id="rGeiDBjM-hpVKBiNeYJ4-0" />
        <mxCell id="rGeiDBjM-hpVKBiNeYJ4-1" parent="rGeiDBjM-hpVKBiNeYJ4-0" />
      </root>
    </mxGraphModel>
  </diagram>
</mxfile>
